<?xml version="1.0" encoding="UTF-8" standalone="no"?>
<svg
   height="200mm"
   viewBox="0 0 377.08 200"
   width="377.07999mm"
   version="1.1"
   id="svg4"
   sodipodi:docname="lichen_sept_9_v4.svg"
   inkscape:version="1.4.3 (0d15f75042, 2025-12-25)"
   xml:space="preserve"
   xmlns:inkscape="http://www.inkscape.org/namespaces/inkscape"
   xmlns:sodipodi="http://sodipodi.sourceforge.net/DTD/sodipodi-0.dtd"
   xmlns="http://www.w3.org/2000/svg"
   xmlns:svg="http://www.w3.org/2000/svg"
   xmlns:rdf="http://www.w3.org/1999/02/22-rdf-syntax-ns#"
   xmlns:cc="http://creativecommons.org/ns#"
   xmlns:dc="http://purl.org/dc/elements/1.1/"><defs
     id="defs4" /><sodipodi:namedview
     id="namedview4"
     pagecolor="#ffffff"
     bordercolor="#000000"
     borderopacity="0.25"
     inkscape:showpageshadow="2"
     inkscape:pageopacity="0.0"
     inkscape:pagecheckerboard="0"
     inkscape:deskcolor="#d1d1d1"
     inkscape:document-units="mm"
     inkscape:zoom="0.94708793"
     inkscape:cx="1117.1085"
     inkscape:cy="282.44473"
     inkscape:window-width="1268"
     inkscape:window-height="768"
     inkscape:window-x="0"
     inkscape:window-y="0"
     inkscape:window-maximized="1"
     inkscape:current-layer="svg4"
     showguides="false" /><!--
UBox - Box various options for different stypes and lids

Created with Boxes.py (https://boxes.hackerspace-bamberg.de/)
Creation date: 2026-01-27 09:47:10
Command line (remove spaces between dashes): boxes UBox - -x=70 - -radius=50 - -thickness=4 - -burn=0.0 - -labels=0 - -reference=0 - -spacing=0.5
Url: https://boxes.hackerspace-bamberg.de/UBox?FingerJoint_style=rectangular&FingerJoint_surroundingspaces=2.0&FingerJoint_bottom_lip=0.0&FingerJoint_edge_width=1.0&FingerJoint_extra_length=0.0&FingerJoint_finger=2.0&FingerJoint_play=0.0&FingerJoint_space=2.0&FingerJoint_width=1.0&Stackable_angle=60&Stackable_bottom_stabilizers=0.0&Stackable_height=2.0&Stackable_holedistance=1.0&Stackable_width=4.0&Hinge_grip_percentage=0&Hinge_outset=0&Hinge_pinwidth=0.5&Hinge_axle=2.0&Hinge_grip_length=0&Hinge_hingestrength=1&CabinetHinge_bore=3.2&CabinetHinge_eyes_per_hinge=5&CabinetHinge_hinges=2&CabinetHinge_style=inside&CabinetHinge_eye=1.5&CabinetHinge_play=0.05&CabinetHinge_spacing=2.0&SlideOnLid_hole_width=0&SlideOnLid_second_pin=0&SlideOnLid_second_pin=1&SlideOnLid_spring=both&SlideOnLid_style=rectangular&SlideOnLid_surroundingspaces=2.0&SlideOnLid_bottom_lip=0.0&SlideOnLid_edge_width=1.0&SlideOnLid_extra_length=0.0&SlideOnLid_finger=3.0&SlideOnLid_play=0.05&SlideOnLid_space=2.0&SlideOnLid_width=1.0&Click_angle=5.0&Click_bottom_radius=0.1&Click_depth=3.0&RoundedTriangleEdge_height=50.0&RoundedTriangleEdge_r_hole=2.0&RoundedTriangleEdge_radius=30.0&RoundedTriangleEdge_outset=0.0&Mounting_d_head=6.5&Mounting_d_shaft=3.0&Mounting_margin=0.125&Mounting_num=2&Mounting_side=back&Mounting_style=straight+edge%2C+within&HandleEdge_height=20.0&HandleEdge_hole_height=75.0&HandleEdge_hole_width=40%3A40&HandleEdge_on_sides=0&HandleEdge_on_sides=1&HandleEdge_radius=10.0&HandleEdge_outset=1.0&Flex_stretch=1.05&Flex_connection=1.0&Flex_distance=0.5&Flex_width=5.0&Lid_handle=none&Lid_style=none&Lid_handle_height=8.0&Lid_height=4.0&Lid_play=0.1&top_edge=e&x=70&y=100&h=100&radius=50&thickness=4&burn=0.0&format=svg&labels=0&reference=0&tabs=0.0&qr_code=0&inner_corners=loop&spacing=0.5&debug=0&language=en&render=2
Url short: https://boxes.hackerspace-bamberg.de/UBox?x=70&radius=50&thickness=4&burn=0.0&labels=0&reference=0&spacing=0.5
SettingsUrl: https://boxes.hackerspace-bamberg.de/UBox?FingerJoint_style=rectangular&FingerJoint_surroundingspaces=2.0&FingerJoint_bottom_lip=0.0&FingerJoint_edge_width=1.0&FingerJoint_extra_length=0.0&FingerJoint_finger=2.0&FingerJoint_play=0.0&FingerJoint_space=2.0&FingerJoint_width=1.0&Stackable_angle=60&Stackable_bottom_stabilizers=0.0&Stackable_height=2.0&Stackable_holedistance=1.0&Stackable_width=4.0&Hinge_grip_percentage=0&Hinge_outset=0&Hinge_pinwidth=0.5&Hinge_axle=2.0&Hinge_grip_length=0&Hinge_hingestrength=1&CabinetHinge_bore=3.2&CabinetHinge_eyes_per_hinge=5&CabinetHinge_hinges=2&CabinetHinge_style=inside&CabinetHinge_eye=1.5&CabinetHinge_play=0.05&CabinetHinge_spacing=2.0&SlideOnLid_hole_width=0&SlideOnLid_second_pin=0&SlideOnLid_second_pin=1&SlideOnLid_spring=both&SlideOnLid_style=rectangular&SlideOnLid_surroundingspaces=2.0&SlideOnLid_bottom_lip=0.0&SlideOnLid_edge_width=1.0&SlideOnLid_extra_length=0.0&SlideOnLid_finger=3.0&SlideOnLid_play=0.05&SlideOnLid_space=2.0&SlideOnLid_width=1.0&Click_angle=5.0&Click_bottom_radius=0.1&Click_depth=3.0&RoundedTriangleEdge_height=50.0&RoundedTriangleEdge_r_hole=2.0&RoundedTriangleEdge_radius=30.0&RoundedTriangleEdge_outset=0.0&Mounting_d_head=6.5&Mounting_d_shaft=3.0&Mounting_margin=0.125&Mounting_num=2&Mounting_side=back&Mounting_style=straight+edge%2C+within&HandleEdge_height=20.0&HandleEdge_hole_height=75.0&HandleEdge_hole_width=40%3A40&HandleEdge_on_sides=0&HandleEdge_on_sides=1&HandleEdge_radius=10.0&HandleEdge_outset=1.0&Flex_stretch=1.05&Flex_connection=1.0&Flex_distance=0.5&Flex_width=5.0&Lid_handle=none&Lid_style=none&Lid_handle_height=8.0&Lid_height=4.0&Lid_play=0.1&top_edge=e&x=70&y=100&h=100&radius=50&thickness=4&burn=0.0&format=svg&labels=0&reference=0&tabs=0.0&qr_code=0&inner_corners=loop&spacing=0.5&debug=0&language=en&render=2
SettingsUrl short: https://boxes.hackerspace-bamberg.de/UBox?x=70&radius=50&thickness=4&burn=0.0&labels=0&reference=0&spacing=0.5
--><title
     id="title1">UBox</title><metadata
     id="metadata1"><rdf:RDF><cc:Work><dc:title>UBox</dc:title><dc:date>2026-01-27 09:47:10</dc:date><dc:source>https://boxes.hackerspace-bamberg.de/UBox?FingerJoint_style=rectangular&amp;FingerJoint_surroundingspaces=2.0&amp;FingerJoint_bottom_lip=0.0&amp;FingerJoint_edge_width=1.0&amp;FingerJoint_extra_length=0.0&amp;FingerJoint_finger=2.0&amp;FingerJoint_play=0.0&amp;FingerJoint_space=2.0&amp;FingerJoint_width=1.0&amp;Stackable_angle=60&amp;Stackable_bottom_stabilizers=0.0&amp;Stackable_height=2.0&amp;Stackable_holedistance=1.0&amp;Stackable_width=4.0&amp;Hinge_grip_percentage=0&amp;Hinge_outset=0&amp;Hinge_pinwidth=0.5&amp;Hinge_axle=2.0&amp;Hinge_grip_length=0&amp;Hinge_hingestrength=1&amp;CabinetHinge_bore=3.2&amp;CabinetHinge_eyes_per_hinge=5&amp;CabinetHinge_hinges=2&amp;CabinetHinge_style=inside&amp;CabinetHinge_eye=1.5&amp;CabinetHinge_play=0.05&amp;CabinetHinge_spacing=2.0&amp;SlideOnLid_hole_width=0&amp;SlideOnLid_second_pin=0&amp;SlideOnLid_second_pin=1&amp;SlideOnLid_spring=both&amp;SlideOnLid_style=rectangular&amp;SlideOnLid_surroundingspaces=2.0&amp;SlideOnLid_bottom_lip=0.0&amp;SlideOnLid_edge_width=1.0&amp;SlideOnLid_extra_length=0.0&amp;SlideOnLid_finger=3.0&amp;SlideOnLid_play=0.05&amp;SlideOnLid_space=2.0&amp;SlideOnLid_width=1.0&amp;Click_angle=5.0&amp;Click_bottom_radius=0.1&amp;Click_depth=3.0&amp;RoundedTriangleEdge_height=50.0&amp;RoundedTriangleEdge_r_hole=2.0&amp;RoundedTriangleEdge_radius=30.0&amp;RoundedTriangleEdge_outset=0.0&amp;Mounting_d_head=6.5&amp;Mounting_d_shaft=3.0&amp;Mounting_margin=0.125&amp;Mounting_num=2&amp;Mounting_side=back&amp;Mounting_style=straight+edge%2C+within&amp;HandleEdge_height=20.0&amp;HandleEdge_hole_height=75.0&amp;HandleEdge_hole_width=40%3A40&amp;HandleEdge_on_sides=0&amp;HandleEdge_on_sides=1&amp;HandleEdge_radius=10.0&amp;HandleEdge_outset=1.0&amp;Flex_stretch=1.05&amp;Flex_connection=1.0&amp;Flex_distance=0.5&amp;Flex_width=5.0&amp;Lid_handle=none&amp;Lid_style=none&amp;Lid_handle_height=8.0&amp;Lid_height=4.0&amp;Lid_play=0.1&amp;top_edge=e&amp;x=70&amp;y=100&amp;h=100&amp;radius=50&amp;thickness=4&amp;burn=0.0&amp;format=svg&amp;labels=0&amp;reference=0&amp;tabs=0.0&amp;qr_code=0&amp;inner_corners=loop&amp;spacing=0.5&amp;debug=0&amp;language=en&amp;render=2</dc:source><dc:source>https://boxes.hackerspace-bamberg.de/UBox?x=70&amp;radius=50&amp;thickness=4&amp;burn=0.0&amp;labels=0&amp;reference=0&amp;spacing=0.5</dc:source><dc:description>Box various options for different stypes and lids

Created with Boxes.py (https://boxes.hackerspace-bamberg.de/)
Command line: boxes UBox --FingerJoint_style=rectangular --FingerJoint_surroundingspaces=2.0 --FingerJoint_bottom_lip=0.0 --FingerJoint_edge_width=1.0 --FingerJoint_extra_length=0.0 --FingerJoint_finger=2.0 --FingerJoint_play=0.0 --FingerJoint_space=2.0 --FingerJoint_width=1.0 --Stackable_angle=60 --Stackable_bottom_stabilizers=0.0 --Stackable_height=2.0 --Stackable_holedistance=1.0 --Stackable_width=4.0 --Hinge_grip_percentage=0 --Hinge_outset=0 --Hinge_pinwidth=0.5 --Hinge_axle=2.0 --Hinge_grip_length=0 --Hinge_hingestrength=1 --CabinetHinge_bore=3.2 --CabinetHinge_eyes_per_hinge=5 --CabinetHinge_hinges=2 --CabinetHinge_style=inside --CabinetHinge_eye=1.5 --CabinetHinge_play=0.05 --CabinetHinge_spacing=2.0 --SlideOnLid_hole_width=0 --SlideOnLid_second_pin=0 --SlideOnLid_second_pin=1 --SlideOnLid_spring=both --SlideOnLid_style=rectangular --SlideOnLid_surroundingspaces=2.0 --SlideOnLid_bottom_lip=0.0 --SlideOnLid_edge_width=1.0 --SlideOnLid_extra_length=0.0 --SlideOnLid_finger=3.0 --SlideOnLid_play=0.05 --SlideOnLid_space=2.0 --SlideOnLid_width=1.0 --Click_angle=5.0 --Click_bottom_radius=0.1 --Click_depth=3.0 --RoundedTriangleEdge_height=50.0 --RoundedTriangleEdge_r_hole=2.0 --RoundedTriangleEdge_radius=30.0 --RoundedTriangleEdge_outset=0.0 --Mounting_d_head=6.5 --Mounting_d_shaft=3.0 --Mounting_margin=0.125 --Mounting_num=2 --Mounting_side=back '--Mounting_style=straight edge, within' --HandleEdge_height=20.0 --HandleEdge_hole_height=75.0 --HandleEdge_hole_width=40:40 --HandleEdge_on_sides=0 --HandleEdge_on_sides=1 --HandleEdge_radius=10.0 --HandleEdge_outset=1.0 --Flex_stretch=1.05 --Flex_connection=1.0 --Flex_distance=0.5 --Flex_width=5.0 --Lid_handle=none --Lid_style=none --Lid_handle_height=8.0 --Lid_height=4.0 --Lid_play=0.1 --top_edge=e --x=70 --y=100 --h=100 --radius=50 --thickness=4 --burn=0.0 --format=svg --labels=0 --reference=0 --tabs=0.0 --qr_code=0 --inner_corners=loop --spacing=0.5 --debug=0
Command line short: boxes UBox --x=70 --radius=50 --thickness=4 --burn=0.0 --labels=0 --reference=0 --spacing=0.5
Url: https://boxes.hackerspace-bamberg.de/UBox?FingerJoint_style=rectangular&amp;FingerJoint_surroundingspaces=2.0&amp;FingerJoint_bottom_lip=0.0&amp;FingerJoint_edge_width=1.0&amp;FingerJoint_extra_length=0.0&amp;FingerJoint_finger=2.0&amp;FingerJoint_play=0.0&amp;FingerJoint_space=2.0&amp;FingerJoint_width=1.0&amp;Stackable_angle=60&amp;Stackable_bottom_stabilizers=0.0&amp;Stackable_height=2.0&amp;Stackable_holedistance=1.0&amp;Stackable_width=4.0&amp;Hinge_grip_percentage=0&amp;Hinge_outset=0&amp;Hinge_pinwidth=0.5&amp;Hinge_axle=2.0&amp;Hinge_grip_length=0&amp;Hinge_hingestrength=1&amp;CabinetHinge_bore=3.2&amp;CabinetHinge_eyes_per_hinge=5&amp;CabinetHinge_hinges=2&amp;CabinetHinge_style=inside&amp;CabinetHinge_eye=1.5&amp;CabinetHinge_play=0.05&amp;CabinetHinge_spacing=2.0&amp;SlideOnLid_hole_width=0&amp;SlideOnLid_second_pin=0&amp;SlideOnLid_second_pin=1&amp;SlideOnLid_spring=both&amp;SlideOnLid_style=rectangular&amp;SlideOnLid_surroundingspaces=2.0&amp;SlideOnLid_bottom_lip=0.0&amp;SlideOnLid_edge_width=1.0&amp;SlideOnLid_extra_length=0.0&amp;SlideOnLid_finger=3.0&amp;SlideOnLid_play=0.05&amp;SlideOnLid_space=2.0&amp;SlideOnLid_width=1.0&amp;Click_angle=5.0&amp;Click_bottom_radius=0.1&amp;Click_depth=3.0&amp;RoundedTriangleEdge_height=50.0&amp;RoundedTriangleEdge_r_hole=2.0&amp;RoundedTriangleEdge_radius=30.0&amp;RoundedTriangleEdge_outset=0.0&amp;Mounting_d_head=6.5&amp;Mounting_d_shaft=3.0&amp;Mounting_margin=0.125&amp;Mounting_num=2&amp;Mounting_side=back&amp;Mounting_style=straight+edge%2C+within&amp;HandleEdge_height=20.0&amp;HandleEdge_hole_height=75.0&amp;HandleEdge_hole_width=40%3A40&amp;HandleEdge_on_sides=0&amp;HandleEdge_on_sides=1&amp;HandleEdge_radius=10.0&amp;HandleEdge_outset=1.0&amp;Flex_stretch=1.05&amp;Flex_connection=1.0&amp;Flex_distance=0.5&amp;Flex_width=5.0&amp;Lid_handle=none&amp;Lid_style=none&amp;Lid_handle_height=8.0&amp;Lid_height=4.0&amp;Lid_play=0.1&amp;top_edge=e&amp;x=70&amp;y=100&amp;h=100&amp;radius=50&amp;thickness=4&amp;burn=0.0&amp;format=svg&amp;labels=0&amp;reference=0&amp;tabs=0.0&amp;qr_code=0&amp;inner_corners=loop&amp;spacing=0.5&amp;debug=0&amp;language=en&amp;render=2
Url short: https://boxes.hackerspace-bamberg.de/UBox?x=70&amp;radius=50&amp;thickness=4&amp;burn=0.0&amp;labels=0&amp;reference=0&amp;spacing=0.5
SettingsUrl: https://boxes.hackerspace-bamberg.de/UBox?FingerJoint_style=rectangular&amp;FingerJoint_surroundingspaces=2.0&amp;FingerJoint_bottom_lip=0.0&amp;FingerJoint_edge_width=1.0&amp;FingerJoint_extra_length=0.0&amp;FingerJoint_finger=2.0&amp;FingerJoint_play=0.0&amp;FingerJoint_space=2.0&amp;FingerJoint_width=1.0&amp;Stackable_angle=60&amp;Stackable_bottom_stabilizers=0.0&amp;Stackable_height=2.0&amp;Stackable_holedistance=1.0&amp;Stackable_width=4.0&amp;Hinge_grip_percentage=0&amp;Hinge_outset=0&amp;Hinge_pinwidth=0.5&amp;Hinge_axle=2.0&amp;Hinge_grip_length=0&amp;Hinge_hingestrength=1&amp;CabinetHinge_bore=3.2&amp;CabinetHinge_eyes_per_hinge=5&amp;CabinetHinge_hinges=2&amp;CabinetHinge_style=inside&amp;CabinetHinge_eye=1.5&amp;CabinetHinge_play=0.05&amp;CabinetHinge_spacing=2.0&amp;SlideOnLid_hole_width=0&amp;SlideOnLid_second_pin=0&amp;SlideOnLid_second_pin=1&amp;SlideOnLid_spring=both&amp;SlideOnLid_style=rectangular&amp;SlideOnLid_surroundingspaces=2.0&amp;SlideOnLid_bottom_lip=0.0&amp;SlideOnLid_edge_width=1.0&amp;SlideOnLid_extra_length=0.0&amp;SlideOnLid_finger=3.0&amp;SlideOnLid_play=0.05&amp;SlideOnLid_space=2.0&amp;SlideOnLid_width=1.0&amp;Click_angle=5.0&amp;Click_bottom_radius=0.1&amp;Click_depth=3.0&amp;RoundedTriangleEdge_height=50.0&amp;RoundedTriangleEdge_r_hole=2.0&amp;RoundedTriangleEdge_radius=30.0&amp;RoundedTriangleEdge_outset=0.0&amp;Mounting_d_head=6.5&amp;Mounting_d_shaft=3.0&amp;Mounting_margin=0.125&amp;Mounting_num=2&amp;Mounting_side=back&amp;Mounting_style=straight+edge%2C+within&amp;HandleEdge_height=20.0&amp;HandleEdge_hole_height=75.0&amp;HandleEdge_hole_width=40%3A40&amp;HandleEdge_on_sides=0&amp;HandleEdge_on_sides=1&amp;HandleEdge_radius=10.0&amp;HandleEdge_outset=1.0&amp;Flex_stretch=1.05&amp;Flex_connection=1.0&amp;Flex_distance=0.5&amp;Flex_width=5.0&amp;Lid_handle=none&amp;Lid_style=none&amp;Lid_handle_height=8.0&amp;Lid_height=4.0&amp;Lid_play=0.1&amp;top_edge=e&amp;x=70&amp;y=100&amp;h=100&amp;radius=50&amp;thickness=4&amp;burn=0.0&amp;format=svg&amp;labels=0&amp;reference=0&amp;tabs=0.0&amp;qr_code=0&amp;inner_corners=loop&amp;spacing=0.5&amp;debug=0&amp;language=en&amp;render=2
SettingsUrl short: https://boxes.hackerspace-bamberg.de/UBox?x=70&amp;radius=50&amp;thickness=4&amp;burn=0.0&amp;labels=0&amp;reference=0&amp;spacing=0.5
</dc:description></cc:Work></rdf:RDF></metadata><g
     id="g8"
     transform="matrix(1.1402687,0,0,0.89435407,-37.608822,6.9067566)"><g
       id="g6"
       transform="rotate(180,172.69932,104.29324)"><rect
         style="fill:none;stroke:#000000;stroke-width:1.066"
         id="rect5"
         width="28"
         height="19"
         x="49.255821"
         y="124.27757"
         ry="1.2881041" /><text
         xml:space="preserve"
         style="font-size:5.94528px;font-family:Constantia;-inkscape-font-specification:Constantia;text-align:start;writing-mode:lr-tb;direction:ltr;text-anchor:start;fill:none;stroke:#ff0000;stroke-width:0.374272"
         x="64.168091"
         y="114.62096"
         id="text2"
         transform="scale(0.86093889,1.1615226)"><tspan
           sodipodi:role="line"
           id="tspan2"
           style="fill:none;stroke:#ff0000;stroke-width:0.374272"
           x="64.168091"
           y="114.62096">display</tspan></text></g></g><ellipse
     style="fill:none;stroke:#000000;stroke-width:0.154783"
     id="path5-6"
     cx="-159.33002"
     cy="-51.385006"
     transform="scale(-1)"
     rx="1.4226266"
     ry="1.4232833" /><g
     id="g12"
     transform="translate(3.0197439,1.5875)"><g
       id="g11"><ellipse
         style="fill:none;stroke:#000000;stroke-width:0.257968"
         id="path5-7"
         cx="-165.4837"
         cy="-65.472061"
         transform="scale(-1)"
         rx="2.3710163"
         ry="2.3721108" /><ellipse
         style="fill:none;stroke:#000000;stroke-width:0.257968"
         id="path5-7-6"
         cx="-174.74373"
         cy="-65.471931"
         transform="scale(-1)"
         rx="2.3710163"
         ry="2.3721108" /></g><ellipse
       style="fill:none;stroke:#000000;stroke-width:0.257968"
       id="path5-7-6-9"
       cx="-170.11372"
       cy="-73.409431"
       transform="scale(-1)"
       rx="2.3710163"
       ry="2.3721108" /></g><g
     id="g3"
     transform="matrix(-0.92965065,0,0,-1.0029299,336.07015,192.32112)"><rect
       style="fill:none;stroke:#000000;stroke-width:1.066"
       id="rect5-1"
       width="21"
       height="12.5"
       x="140.43567"
       y="97.855042"
       ry="1.2881041" /><text
       xml:space="preserve"
       style="font-size:4.19599px;font-family:Constantia;-inkscape-font-specification:Constantia;text-align:start;writing-mode:lr-tb;direction:ltr;text-anchor:start;fill:none;stroke:#ff0000;stroke-width:0.26415"
       x="143.97154"
       y="106.00746"
       id="text4"
       transform="scale(1.0040153,0.99600078)"><tspan
         sodipodi:role="line"
         id="tspan4"
         style="stroke:#ff0000;stroke-width:0.26415"
         x="143.97154"
         y="106.00746">anknopf</tspan></text></g><g
     id="g4"
     transform="rotate(180,173.77099,95.434657)"><rect
       style="fill:none;stroke:#000000;stroke-width:1.066"
       id="rect5-1-9"
       width="16.5"
       height="13.2"
       x="190.23138"
       y="132.88431"
       ry="1.2881041" /><text
       xml:space="preserve"
       style="font-size:6.48874px;font-family:Constantia;-inkscape-font-specification:Constantia;text-align:start;writing-mode:lr-tb;direction:ltr;text-anchor:start;fill:none;stroke:#ff0000;stroke-width:0.408485"
       x="191.21907"
       y="141.4641"
       id="text5"
       transform="scale(1.0001858,0.99981422)"><tspan
         sodipodi:role="line"
         id="tspan5"
         style="stroke:#ff0000;stroke-width:0.408485"
         x="191.21907"
         y="141.4641">temp</tspan></text></g><g
     id="g7"
     transform="rotate(180,172.02742,101.10225)"><text
       xml:space="preserve"
       style="font-size:2.9171px;font-family:Constantia;-inkscape-font-specification:Constantia;text-align:start;writing-mode:lr-tb;direction:ltr;text-anchor:start;fill:none;stroke:#ff0000;stroke-width:0.18364"
       x="196.00562"
       y="112.45535"
       id="text1"
       transform="scale(0.97413355,1.0265533)"><tspan
         sodipodi:role="line"
         id="tspan1"
         style="stroke:#ff0000;stroke-width:0.18364"
         x="196.00562"
         y="112.45535">usb c</tspan></text><g
       id="g4-1"
       transform="translate(-1.2682476,-21.872019)"><rect
         style="fill:none;stroke:#000000;stroke-width:0.628227"
         id="rect5-1-9-2"
         width="12.5"
         height="7"
         x="190.0125"
         y="132.66542"
         ry="3.5"
         rx="3.5" /></g></g><g
     id="p-3"
     style="fill:none;stroke-linecap:round;stroke-linejoin:round"
     transform="rotate(180,64.000001,60.363181)"><path
       d="M 14,83.9 L 28,83.9 L 28,87.9 L 36,87.9 L 36,83.9 L 44,83.9 L 44,87.9 L 52,87.9 L 52,83.9 L 60,83.9 L 60,87.9 L 68,87.9 L 68,83.9 L 76,83.9 L 76,87.9 L 84,87.9 L 84,83.9 L 92,83.9 L 92,87.9 L 100,87.9 L 100,83.9 L 114,83.9 L 114,69 L 118,69 L 118,61 L 114,61 L 114,53 L 118,53 L 118,45 L 114,45 L 114,37 L 118,37 L 118,29 L 114,29 L 114,14.1 L 100,14.1 L 100,10.1 L 92,10.1 L 92,14.1 L 84,14.1 L 84,10.1 L 76,10.1 L 76,14.1 L 68,14.1 L 68,10.1 L 60,10.1 L 60,14.1 L 52,14.1 L 52,10.1 L 44,10.1 L 44,14.1 L 36,14.1 L 36,10.1 L 28,10.1 L 28,14.1 L 14,14.1 L 14,29 L 10,29 L 10,37 L 14,37 L 14,45 L 10,45 L 10,53 L 14,53 L 14,61 L 10,61 L 10,69 L 14,69 Z"
       stroke="#000000"
       stroke-width="0.05"
       id="path14" /><text
       dominant-baseline="hanging"
       font-size="4px"
       style="font-style:normal;font-weight:normal;font-family:sans-serif;fill:#ff0000"
       text-anchor="middle"
       transform="translate(64,47)"
       id="text14">bottom</text></g><g
     id="g1"
     transform="rotate(180,173.56673,99.956188)"
     style="stroke:#000000"><g
       id="p-2"
       style="fill:none;stroke-linecap:round;stroke-linejoin:round;stroke:#000000"
       transform="translate(0,-0.08762166)"><path
         d="M 10,88 L 23.08,88 L 23.08,84 L 30.92,84 L 30.92,88 L 39.08,88 L 39.08,84 L 46.92,84 L 46.92,88 L 60,88 L 217.08,88 L 230.16,88 L 230.16,84 L 238,84 L 238,88 L 246.16,88 L 246.16,84 L 254,84 L 254,88 L 267.08,88 L 267.08,84 L 267.08,14 L 267.08,10 L 254,10 L 254,14 L 246.16,14 L 246.16,10 L 238,10 L 238,14 L 230.16,14 L 230.16,10 L 217.08,10 L 60,10 L 46.92,10 L 46.92,14 L 39.08,14 L 39.08,10 L 30.92,10 L 30.92,14 L 23.08,14 L 23.08,10 L 10,10 L 10,14 L 10,84 Z"
         stroke="#000000"
         stroke-width="0.05"
         id="path3"
         style="stroke:#000000" /><path
         d="M 62.54,88 V 63.333 m 0,-4 V 14 m 2,-4 v 24.667 m 0,4 V 84 m 2,4 V 63.333 m 0,-4 V 14 m 2,-4 v 24.667 m 0,4 V 84 m 2,4 V 63.333 m 0,-4 V 14 m 2,-4 v 24.667 m 0,4 V 84 m 2,4 V 63.333 m 0,-4 V 14 m 2,-4 v 24.667 m 0,4 V 84 m 2,4 V 63.333 m 0,-4 V 14 m 2,-4 v 24.667 m 0,4 V 84 m 2,4 V 63.333 m 0,-4 V 14 m 2,-4 v 24.667 m 0,4 V 84 m 2,4 V 63.333 m 0,-4 V 14 m 2,-4 v 24.667 m 0,4 V 84 m 2,4 V 63.333 m 0,-4 V 14 m 2,-4 v 24.667 m 0,4 V 84 m 2,4 V 63.333 m 0,-4 V 14 m 2,-4 v 24.667 m 0,4 V 84 m 2,4 V 63.333 m 0,-4 V 14 m 2,-4 v 24.667 m 0,4 V 84 m 2,4 V 63.333 m 0,-4 V 14 m 2,-4 v 24.667 m 0,4 V 84 m 2,4 V 63.333 m 0,-4 V 14 m 2,-4 v 24.667 m 0,4 V 84 m 2,4 V 63.333 m 0,-4 V 14 m 2,-4 v 24.667 m 0,4 V 84 m 2,4 V 63.333 m 0,-4 V 14 m 2,-4 v 24.667 m 0,4 V 84 m 2,4 V 63.333 m 0,-4 V 14 m 2,-4 v 24.667 m 0,4 V 84 m 2,4 V 63.333 m 0,-4 V 14 m 2,-4 v 24.667 m 0,4 V 84 m 2,4 V 63.333 m 0,-4 V 14 m 2,-4 v 24.667 m 0,4 V 84 m 2,4 V 63.333 m 0,-4 V 14 m 2,-4 v 24.667 m 0,4 V 84 m 2,4 V 63.333 m 0,-4 V 14 m 2,-4 v 24.667 m 0,4 V 84 m 2,4 V 63.333 m 0,-4 V 14 m 2,-4 v 24.667 m 0,4 V 84 m 2,4 V 63.333 m 0,-4 V 14 m 2,-4 v 24.667 m 0,4 V 84 m 2,4 V 63.333 m 0,-4 V 14 m 2,-4 v 24.667 m 0,4 V 84 m 2,4 V 63.333 m 0,-4 V 14 m 2,-4 v 24.667 m 0,4 V 84 m 2,4 V 63.333 m 0,-4 V 14 m 2,-4 v 24.667 m 0,4 V 84 m 2,4 V 63.333 m 0,-4 V 14 m 2,-4 v 24.667 m 0,4 V 84 m 2,4 V 63.333 m 0,-4 V 14 m 2,-4 v 24.667 m 0,4 V 84 m 2,4 V 63.333 m 0,-4 V 14 m 2,-4 v 24.667 m 0,4 V 84 m 2,4 V 63.333 m 0,-4 V 14 m 2,-4 v 24.667 m 0,4 V 84 m 2,4 V 63.333 m 0,-4 V 14 m 2,-4 v 24.667 m 0,4 V 84 m 2,4 V 63.333 m 0,-4 V 14 m 2,-4 v 24.667 m 0,4 V 84 m 2,4 V 63.333 m 0,-4 V 14 m 2,-4 v 24.667 m 0,4 V 84 m 2,4 V 63.333 m 0,-4 V 14 m 2,-4 v 24.667 m 0,4 V 84 m 2,4 V 63.333 m 0,-4 V 14 m 2,-4 v 24.667 m 0,4 V 84 m 2,4 V 63.333 m 0,-4 V 14 m 2,-4 v 24.667 m 0,4 V 84 m 2,4 V 63.333 m 0,-4 V 14 m 2,-4 v 24.667 m 0,4 V 84 m 2,4 V 63.333 m 0,-4 V 14 m 2,-4 v 24.667 m 0,4 V 84 m 2,4 V 63.333 m 0,-4 V 14 m 2,-4 v 24.667 m 0,4 V 84 m 2,4 V 63.333 m 0,-4 V 14 m 2,-4 v 24.667 m 0,4 V 84 m 2,4 V 63.333 m 0,-4 V 14"
         stroke="#000000"
         stroke-width="0.05"
         id="path4"
         style="stroke:#000000" /></g><path
       d="M 259.08,61.08 L 263.08,61.08 L 263.08,68.92 L 259.08,68.92 Z"
       stroke="#000000"
       stroke-width="0.05"
       id="path19"
       style="fill:none;stroke-linecap:round;stroke-linejoin:round;stroke:#000000" /><path
       d="M 259.08,45.08 L 263.08,45.08 L 263.08,52.92 L 259.08,52.92 Z"
       stroke="#000000"
       stroke-width="0.05"
       id="path20"
       style="fill:none;stroke-linecap:round;stroke-linejoin:round;stroke:#000000" /><path
       d="M 259.08,29.08 L 263.08,29.08 L 263.08,36.92 L 259.08,36.92 Z"
       stroke="#000000"
       stroke-width="0.05"
       id="path21"
       style="fill:none;stroke-linecap:round;stroke-linejoin:round;stroke:#000000" /><path
       d="M 14,29.08 L 18,29.08 L 18,36.92 L 14,36.92 Z"
       stroke="#000000"
       stroke-width="0.05"
       id="path19-9"
       style="fill:none;stroke-linecap:round;stroke-linejoin:round;stroke:#000000" /><path
       d="M 14,45.08 L 18,45.08 L 18,52.92 L 14,52.92 Z"
       stroke="#000000"
       stroke-width="0.05"
       id="path20-2"
       style="fill:none;stroke-linecap:round;stroke-linejoin:round;stroke:#000000" /><path
       d="M 14,61.08 L 18,61.08 L 18,68.92 L 14,68.92 Z"
       stroke="#000000"
       stroke-width="0.05"
       id="path21-0"
       style="fill:none;stroke-linecap:round;stroke-linejoin:round;stroke:#000000" /></g><g
     id="g2"
     transform="rotate(180,173.56673,99.956188)"
     style="stroke:#000000"><g
       id="p-1"
       style="fill:none;stroke-linecap:round;stroke-linejoin:round;stroke:#000000"><path
         d="M 174,190 C 182.777,190 191.399,187.69 199,183.301 C 206.601,178.913 212.913,172.601 217.301,165 C 221.69,157.399 224,148.777 224,140 L 224,127.08 L 228,127.08 L 228,118.92 L 224,118.92 L 224,111.08 L 228,111.08 L 228,102.92 L 224,102.92 L 224,90 L 124,90 L 124,102.92 L 120,102.92 L 120,111.08 L 124,111.08 L 124,118.92 L 120,118.92 L 120,127.08 L 124,127.08 L 124,140 C 124,148.777 126.31,157.399 130.699,165 C 135.087,172.601 141.399,178.913 149,183.301 C 156.601,187.69 165.223,190 174,190 Z"
         stroke="#000000"
         stroke-width="0.05"
         id="path2"
         style="stroke:#000000" /></g><path
       d="M 202.08,94 L 209.92,94 L 209.92,98 L 202.08,98 Z"
       stroke="#000000"
       stroke-width="0.05"
       id="path8"
       style="fill:none;stroke-linecap:round;stroke-linejoin:round;stroke:#000000" /><path
       d="M 186.08,94 L 193.92,94 L 193.92,98 L 186.08,98 Z"
       stroke="#000000"
       stroke-width="0.05"
       id="path9"
       style="fill:none;stroke-linecap:round;stroke-linejoin:round;stroke:#000000" /><path
       d="M 170.08,94 L 177.92,94 L 177.92,98 L 170.08,98 Z"
       stroke="#000000"
       stroke-width="0.05"
       id="path10"
       style="fill:none;stroke-linecap:round;stroke-linejoin:round;stroke:#000000" /><path
       d="M 154.08,94 L 161.92,94 L 161.92,98 L 154.08,98 Z"
       stroke="#000000"
       stroke-width="0.05"
       id="path11"
       style="fill:none;stroke-linecap:round;stroke-linejoin:round;stroke:#000000" /><path
       d="M 138.08,94 L 145.92,94 L 145.92,98 L 138.08,98 Z"
       stroke="#000000"
       stroke-width="0.05"
       id="path12"
       style="fill:none;stroke-linecap:round;stroke-linejoin:round;stroke:#000000" /></g><g
     id="g2-5"
     transform="rotate(180,228.56673,99.956188)"
     style="stroke:#000000"><g
       id="p-1-9"
       style="fill:none;stroke-linecap:round;stroke-linejoin:round;stroke:#000000"><path
         d="M 174,190 C 182.777,190 191.399,187.69 199,183.301 C 206.601,178.913 212.913,172.601 217.301,165 C 221.69,157.399 224,148.777 224,140 L 224,127.08 L 228,127.08 L 228,118.92 L 224,118.92 L 224,111.08 L 228,111.08 L 228,102.92 L 224,102.92 L 224,90 L 124,90 L 124,102.92 L 120,102.92 L 120,111.08 L 124,111.08 L 124,118.92 L 120,118.92 L 120,127.08 L 124,127.08 L 124,140 C 124,148.777 126.31,157.399 130.699,165 C 135.087,172.601 141.399,178.913 149,183.301 C 156.601,187.69 165.223,190 174,190 Z"
         stroke="#000000"
         stroke-width="0.05"
         id="path2-2"
         style="stroke:#000000" /></g><path
       d="M 202.08,94 L 209.92,94 L 209.92,98 L 202.08,98 Z"
       stroke="#000000"
       stroke-width="0.05"
       id="path8-2"
       style="fill:none;stroke-linecap:round;stroke-linejoin:round;stroke:#000000" /><path
       d="M 186.08,94 L 193.92,94 L 193.92,98 L 186.08,98 Z"
       stroke="#000000"
       stroke-width="0.05"
       id="path9-8"
       style="fill:none;stroke-linecap:round;stroke-linejoin:round;stroke:#000000" /><path
       d="M 170.08,94 L 177.92,94 L 177.92,98 L 170.08,98 Z"
       stroke="#000000"
       stroke-width="0.05"
       id="path10-9"
       style="fill:none;stroke-linecap:round;stroke-linejoin:round;stroke:#000000" /><path
       d="M 154.08,94 L 161.92,94 L 161.92,98 L 154.08,98 Z"
       stroke="#000000"
       stroke-width="0.05"
       id="path11-7"
       style="fill:none;stroke-linecap:round;stroke-linejoin:round;stroke:#000000" /><path
       d="M 138.08,94 L 145.92,94 L 145.92,98 L 138.08,98 Z"
       stroke="#000000"
       stroke-width="0.05"
       id="path12-3"
       style="fill:none;stroke-linecap:round;stroke-linejoin:round;stroke:#000000" /></g><g
     inkscape:label="Ebene 1"
     id="layer1"
     transform="matrix(1.6822052,0,0,1.6822052,160.25239,-81.057263)"
     style="fill:none;stroke:#00ff00;stroke-width:0.40542;stroke-dasharray:none"><text
       xml:space="preserve"
       style="font-size:14.1111px;font-family:'Brush Script MT';-inkscape-font-specification:'Brush Script MT, Normal';writing-mode:lr-tb;direction:ltr;fill:none;stroke:#00ff00;stroke-width:0.40542;stroke-dasharray:none"
       x="49.969757"
       y="94.282555"
       id="text1-1"><tspan
         sodipodi:role="line"
         id="tspan1-2"
         style="fill:none;stroke:#00ff00;stroke-width:0.40542;stroke-dasharray:none"
         x="49.969757"
         y="94.282555" /></text><text
       xml:space="preserve"
       style="font-size:14.1111px;font-family:'Brush Script MT';-inkscape-font-specification:'Brush Script MT, Normal';writing-mode:lr-tb;direction:ltr;fill:none;stroke:#00ff00;stroke-width:0.40542;stroke-dasharray:none"
       x="52.066277"
       y="91.592659"
       id="text2-7"><tspan
         sodipodi:role="line"
         id="tspan2-0"
         style="fill:none;stroke:#00ff00;stroke-width:0.40542;stroke-dasharray:none"
         x="52.066277"
         y="91.592659" /></text><path
       style="font-size:14.1111px;font-family:Lobster;-inkscape-font-specification:Lobster;fill:none;stroke:#00ff00;stroke-width:0.40542;stroke-dasharray:none"
       d="m 64.125616,83.273014 c -0.423333,0 -0.841963,-0.122296 -1.255888,-0.366888 -0.404519,-0.235185 -0.921926,-0.602074 -1.552221,-1.100666 -0.47037,-0.376296 -0.874888,-0.682037 -1.213555,-0.917222 -0.329259,-0.225777 -0.691444,-0.418629 -1.086555,-0.578555 -0.385703,-0.159925 -0.780814,-0.239888 -1.185332,-0.239888 -0.141111,0 -0.249296,0.0047 -0.324555,0.01411 l 2.102554,-9.778993 c -0.630296,0.254 -1.119481,0.644407 -1.467555,1.171222 -0.338666,0.517407 -0.507999,1.152406 -0.507999,1.904998 0,0.348074 0.03293,0.592666 0.09878,0.733777 0.06585,0.131704 0.09878,0.206963 0.09878,0.225778 -0.507999,0 -0.888999,-0.103481 -1.142999,-0.310444 -0.244593,-0.216371 -0.366889,-0.569148 -0.366889,-1.058333 0,-0.602073 0.244592,-1.185332 0.733777,-1.749776 0.498593,-0.573851 1.133592,-1.034814 1.904999,-1.382888 0.771407,-0.357481 1.542813,-0.536222 2.31422,-0.536222 0.131704,0 0.319852,0.0094 0.564444,0.02822 l -2.173109,10.13177 c 0.263407,0.06585 0.531518,0.159927 0.804333,0.282222 0.282222,0.131704 0.620888,0.305741 1.015999,0.522111 0.611481,0.329259 1.133591,0.578555 1.566332,0.747888 0.432741,0.178741 0.884296,0.268111 1.354666,0.268111 0.423333,0 0.818443,-0.07526 1.185332,-0.225777 -0.07526,0.68674 -0.244592,1.227665 -0.507999,1.622776 -0.254,0.395111 -0.573852,0.592666 -0.959555,0.592666 z M 63.942167,71.92769 c -0.310444,0 -0.573851,-0.108185 -0.790221,-0.324556 -0.21637,-0.21637 -0.324555,-0.479777 -0.324555,-0.790221 0,-0.310444 0.108185,-0.573851 0.324555,-0.790222 0.21637,-0.225777 0.479777,-0.338666 0.790221,-0.338666 0.310445,0 0.573852,0.112889 0.790222,0.338666 0.225777,0.216371 0.338666,0.479778 0.338666,0.790222 0,0.310444 -0.112889,0.573851 -0.338666,0.790221 -0.21637,0.216371 -0.479777,0.324556 -0.790222,0.324556 z m 1.367575,6.620114 c -0.220974,0.338624 -0.435372,0.56501 -0.704358,0.74588 -0.545629,0.357481 -1.086555,0.536222 -1.622776,0.536222 h 5e-6 c -0.451555,0 -0.818444,-0.141111 -1.100666,-0.423333 -0.272815,-0.282222 -0.409222,-0.705555 -0.409222,-1.269999 0,-0.235185 0.03763,-0.540926 0.112889,-0.917222 l 0.959555,-4.529663 h 2.031998 l -1.015999,4.797774 c -0.03763,0.141111 -0.05645,0.29163 -0.05645,0.451555 0,0.188148 0.04233,0.324555 0.127,0.409222 0.09407,0.07526 0.244592,0.112889 0.451555,0.112889 0.272815,0 0.526815,-0.112889 0.762,-0.338666 0.124279,-0.12428 0.23017,-0.266948 0.317673,-0.428005 m 5.414564,0.475141 c -0.924193,1.148163 -1.95322,1.660307 -3.206346,1.660307 h 3e-6 c -0.696147,0 -1.237073,-0.178741 -1.622776,-0.536222 -0.411688,-0.391607 -0.578555,-0.991827 -0.578555,-1.707443 0,-0.649111 0.127,-1.364073 0.380999,-2.144887 0.263407,-0.780815 0.677333,-1.453444 1.241777,-2.017888 0.573851,-0.573851 1.298221,-0.860777 2.17311,-0.860777 0.564444,0 0.964258,0.122296 1.199443,0.366889 0.244593,0.244592 0.366889,0.555036 0.366889,0.931332 0,0.329259 -0.07056,0.583259 -0.211667,0.762 -0.141111,0.178741 -0.319851,0.268111 -0.536221,0.268111 -0.159926,0 -0.324556,-0.05644 -0.493889,-0.169333 0.112889,-0.310445 0.169333,-0.587963 0.169333,-0.832555 0,-0.178741 -0.03293,-0.319852 -0.09878,-0.423333 -0.06585,-0.103481 -0.164631,-0.155222 -0.296334,-0.155222 -0.282222,0 -0.564444,0.230481 -0.846666,0.691443 -0.282222,0.460963 -0.512703,1.020703 -0.691444,1.679221 -0.17874,0.658518 -0.26811,1.251184 -0.26811,1.777999 0,0.460963 0.07996,0.776111 0.239888,0.945444 0.159926,0.159925 0.41863,0.239888 0.776111,0.239888 0.507999,0 0.94074,-0.117592 1.298221,-0.352777 0.366889,-0.235185 0.766703,-0.592667 1.199444,-1.072444 m 7.108015,1.379699 c -0.196604,0.331526 -0.37976,0.535781 -0.602792,0.708744 -0.451555,0.348074 -0.921925,0.522111 -1.41111,0.522111 h 8e-6 c -0.573851,0 -0.997184,-0.150518 -1.269999,-0.451555 -0.263407,-0.310445 -0.395111,-0.691444 -0.395111,-1.142999 0,-0.197556 0.02352,-0.41863 0.07055,-0.663222 0.04704,-0.254 0.09408,-0.498592 0.141111,-0.733777 0.05645,-0.235185 0.09408,-0.385704 0.112889,-0.451556 0.07526,-0.329259 0.145815,-0.653814 0.211667,-0.973666 0.06585,-0.319851 0.09878,-0.578555 0.09878,-0.77611 0,-0.479777 -0.169333,-0.719666 -0.507999,-0.719666 -0.244593,0 -0.460963,0.122296 -0.649111,0.366888 -0.188148,0.235185 -0.338666,0.54563 -0.451555,0.931333 l -0.959555,4.529663 H 70.23573 l 2.046109,-9.595548 2.088443,-0.282222 -0.761999,3.555997 c 0.47037,-0.526814 1.020703,-0.790221 1.650998,-0.790221 0.479778,0 0.860778,0.131704 1.143,0.395111 0.282222,0.263407 0.423333,0.663221 0.423333,1.199443 0,0.272815 -0.03293,0.578555 -0.09878,0.917222 -0.06585,0.329259 -0.159927,0.733777 -0.282222,1.213554 -0.07526,0.291629 -0.145815,0.578555 -0.211667,0.860777 -0.05645,0.272815 -0.08467,0.489185 -0.08467,0.649111 0,0.188148 0.04233,0.333963 0.127,0.437444 0.08467,0.103481 0.230481,0.155222 0.437444,0.155222 0.282222,0 0.508,-0.09878 0.677333,-0.296333 0.0923,-0.112816 0.232599,-0.308435 0.324903,-0.485543 m 5.406662,0.465628 c -0.932021,1.178788 -1.935952,1.685025 -3.205679,1.685025 h -2e-6 c -0.696148,0 -1.237074,-0.178741 -1.622777,-0.536222 -0.385703,-0.366889 -0.578555,-0.936036 -0.578555,-1.707443 0,-0.649111 0.127,-1.364073 0.381,-2.144887 0.254,-0.780815 0.667926,-1.453444 1.241777,-2.017888 0.573851,-0.573851 1.302925,-0.860777 2.18722,-0.860777 1.034814,0 1.552221,0.451555 1.552221,1.354666 0,0.526814 -0.150518,1.011295 -0.451555,1.453443 -0.301037,0.442148 -0.700851,0.799629 -1.199444,1.072444 -0.498592,0.263407 -1.03011,0.413926 -1.594554,0.451555 -0.01881,0.282222 -0.02822,0.47037 -0.02822,0.564444 0,0.460963 0.07996,0.776111 0.239889,0.945444 0.159925,0.159925 0.418629,0.239888 0.77611,0.239888 0.508,0 0.94074,-0.117592 1.298221,-0.352777 0.366889,-0.235185 0.766703,-0.592667 1.199444,-1.072444 m -3.372557,-1.001888 c 0.348074,-0.01881 0.677333,-0.141109 0.987777,-0.366888 0.319851,-0.225778 0.573851,-0.512704 0.761999,-0.860778 0.197555,-0.348073 0.296333,-0.714962 0.296333,-1.100665 0,-0.385703 -0.117592,-0.578555 -0.352777,-0.578555 -0.338667,0 -0.672629,0.296333 -1.001888,0.888999 -0.319852,0.592666 -0.550333,1.265295 -0.691444,2.017887 z m 8.226781,3.612442 c -0.498592,0 -0.860777,-0.150518 -1.086554,-0.451555 -0.225778,-0.301037 -0.338667,-0.682037 -0.338667,-1.142999 0,-0.197556 0.02352,-0.41863 0.07056,-0.663222 0.04703,-0.254 0.09407,-0.498592 0.141111,-0.733777 0.05645,-0.235185 0.09408,-0.385704 0.112889,-0.451556 0.07526,-0.329259 0.145814,-0.653814 0.211666,-0.973666 0.06585,-0.319851 0.09878,-0.578555 0.09878,-0.77611 0,-0.479777 -0.169333,-0.719666 -0.508,-0.719666 -0.244592,0 -0.460962,0.122296 -0.64911,0.366888 -0.188148,0.235185 -0.338667,0.54563 -0.451556,0.931333 l -0.959554,4.529663 h -2.031999 l 1.495777,-7.05555 h 2.031998 l -0.155222,0.733777 c 0.47037,-0.526814 1.020703,-0.790221 1.650999,-0.790221 0.479777,0 0.860777,0.131704 1.142999,0.395111 0.282222,0.263407 0.423333,0.663221 0.423333,1.199443 0,0.272815 -0.03293,0.578555 -0.09878,0.917222 -0.06585,0.329259 -0.159927,0.733777 -0.282222,1.213554 -0.07526,0.291629 -0.145815,0.578555 -0.211666,0.860777 -0.05645,0.272815 -0.08467,0.489185 -0.08467,0.649111 0,0.188148 0.04233,0.333963 0.127,0.437444 0.08467,0.103481 0.230481,0.155222 0.437444,0.155222 0.225778,0 0.381,-0.02822 0.465666,-0.08467 -0.05645,0.479777 -0.230483,0.841962 -0.52211,1.086554 -0.282222,0.244593 -0.625592,0.366889 -1.030111,0.366889 z"
       id="text4-9"
       aria-label="Lichen"
       sodipodi:nodetypes="sccccscccscccsccscccccsccssssscscscsccsscsccccscscccsscscsscssscsssssscsccccsscscccssscccccccssscccssscccsscsscsssccscscccccssccssscccssscccccccssscccsssccss" /></g><g
     id="g18"
     transform="rotate(-30.617033,218.90695,-6.9369389)"
     inkscape:transform-center-x="1.1727742"
     inkscape:transform-center-y="-2.4943828"><g
       id="g13-0-2"
       transform="matrix(1.0161441,0.00199715,-0.00199807,1.0166132,15.258991,-119.6281)"><circle
         style="fill:none;stroke:#000000;stroke-width:1.066"
         id="path5-2-2"
         cx="151.42503"
         cy="148.69888"
         r="9.8000002" /><text
         xml:space="preserve"
         style="font-size:6.88451px;font-family:Constantia;-inkscape-font-specification:Constantia;text-align:start;writing-mode:lr-tb;direction:ltr;text-anchor:start;fill:none;stroke:#ff0000;stroke-width:0.4334"
         x="148.07079"
         y="149.80058"
         id="text3-3-8"
         transform="scale(0.99485669,1.0051699)"><tspan
           sodipodi:role="line"
           id="tspan3-7-9"
           style="stroke:#ff0000;stroke-width:0.4334"
           x="148.07079"
           y="149.80058">Co2</tspan></text></g><ellipse
       style="fill:none;stroke:#000000;stroke-width:0.154783"
       id="path5-6-6-3"
       cx="176.39218"
       cy="14.516019"
       transform="rotate(0.11261)"
       rx="1.4226266"
       ry="1.4232833" /><ellipse
       style="fill:none;stroke:#000000;stroke-width:0.154783"
       id="path5-6-6-6-6"
       cx="161.39185"
       cy="14.5155"
       transform="rotate(0.11261)"
       rx="1.4226266"
       ry="1.4232833" /><ellipse
       style="fill:none;stroke:#000000;stroke-width:0.154783"
       id="path5-6-6-6-8-1"
       cx="161.39336"
       cy="42.115551"
       transform="rotate(0.11261)"
       rx="1.4226266"
       ry="1.4232833" /><rect
       style="fill:none;stroke:#ff0000;stroke-width:1.00454;stroke-dasharray:none"
       id="rect13-2"
       width="18.995462"
       height="30.995462"
       x="-178.39189"
       y="-44.514103"
       transform="rotate(-179.88739)" /><ellipse
       style="fill:none;stroke:#000000;stroke-width:0.154783"
       id="path5-6-6-6-9-9"
       cx="176.39337"
       cy="42.11607"
       transform="rotate(0.11261)"
       rx="1.4226266"
       ry="1.4232833" /></g><g id="display_screw_holes"><ellipse style="fill:none;stroke:#000000;stroke-width:0.154783" id="path5-6-1" cx="268.6098" cy="61.84003" rx="1.42263" ry="1.42328" /><ellipse style="fill:none;stroke:#000000;stroke-width:0.154783" id="path5-6-1-7" cx="268.6098" cy="90.84002" rx="1.42263" ry="1.42328" /><ellipse style="fill:none;stroke:#000000;stroke-width:0.154783" id="path5-6-1-4" cx="299.6098" cy="61.84003" rx="1.42263" ry="1.42328" /><ellipse style="fill:none;stroke:#000000;stroke-width:0.154783" id="path5-6-1-7-5" cx="299.6098" cy="90.84002" rx="1.42263" ry="1.42328" /></g></svg>
